<svg width="13" height="10" viewBox="0 0 13 10" fill="none" xmlns="http://www.w3.org/2000/svg">
<path d="M11.9167 0.625H1.08333C0.485243 0.625 0 1.04492 0 1.5625V8.4375C0 8.95508 0.485243 9.375 1.08333 9.375H11.9167C12.5148 9.375 13 8.95508 13 8.4375V1.5625C13 1.04492 12.5148 0.625 11.9167 0.625ZM3.97222 2.5C4.76892 2.5 5.41667 3.06055 5.41667 3.75C5.41667 4.43945 4.76892 5 3.97222 5C3.17552 5 2.52778 4.43945 2.52778 3.75C2.52778 3.06055 3.17552 2.5 3.97222 2.5ZM6.5 7.125C6.5 7.33203 6.27431 7.5 5.99444 7.5H1.95C1.67014 7.5 1.44444 7.33203 1.44444 7.125V6.75C1.44444 6.12891 2.12378 5.625 2.96111 5.625H3.07396C3.35156 5.72461 3.65399 5.78125 3.97222 5.78125C4.29045 5.78125 4.59514 5.72461 4.87049 5.625H4.98333C5.82066 5.625 6.5 6.12891 6.5 6.75V7.125ZM11.5556 6.09375C11.5556 6.17969 11.4743 6.25 11.375 6.25H8.125C8.02569 6.25 7.94444 6.17969 7.94444 6.09375V5.78125C7.94444 5.69531 8.02569 5.625 8.125 5.625H11.375C11.4743 5.625 11.5556 5.69531 11.5556 5.78125V6.09375ZM11.5556 4.84375C11.5556 4.92969 11.4743 5 11.375 5H8.125C8.02569 5 7.94444 4.92969 7.94444 4.84375V4.53125C7.94444 4.44531 8.02569 4.375 8.125 4.375H11.375C11.4743 4.375 11.5556 4.44531 11.5556 4.53125V4.84375ZM11.5556 3.59375C11.5556 3.67969 11.4743 3.75 11.375 3.75H8.125C8.02569 3.75 7.94444 3.67969 7.94444 3.59375V3.28125C7.94444 3.19531 8.02569 3.125 8.125 3.125H11.375C11.4743 3.125 11.5556 3.19531 11.5556 3.28125V3.59375Z" fill="#302B2B"/>
</svg>
