<svg width="33" height="34" viewBox="0 0 33 34" fill="none" xmlns="http://www.w3.org/2000/svg">
<g clip-path="url(#clip0_38_135)">
<path d="M25.8431 8.56641C27.7561 8.87652 29.325 9.80621 30.5515 11.3555C31.6306 12.7281 32.3665 14.4546 32.7584 16.5352C33.1024 18.439 33.0766 20.3422 32.6847 22.2461C32.0962 25.3891 30.9191 28.0234 29.1534 30.1484C27.0438 32.7164 24.3957 34 21.2076 34C20.4224 34 19.565 33.7789 18.6325 33.3359C17.9945 32.982 17.2837 32.8047 16.4985 32.8047C15.7133 32.8047 15.0032 32.982 14.3645 33.3359C13.432 33.7789 12.5746 34 11.7894 34C8.60133 34 5.95323 32.7164 3.84358 30.1484C2.07793 28.0234 0.900836 25.3891 0.312287 22.2461C-0.0795883 20.3422 -0.10537 18.439 0.238626 16.5352C0.630501 14.4546 1.36637 12.7281 2.4455 11.3555C3.67195 9.80621 5.24093 8.87652 7.1539 8.56641C8.331 8.3891 9.94932 8.54449 12.0096 9.03125C13.7753 9.47418 15.2713 10.0054 16.4978 10.625C17.7242 10.0054 19.2203 9.47418 20.9859 9.03125C23.0469 8.54449 24.666 8.3891 25.8431 8.56641ZM21.7962 5.84375C21.1097 6.41949 20.2014 6.83984 19.0737 7.10547C18.2885 7.3266 17.431 7.4375 16.4985 7.4375L15.3951 7.37109C15.2971 6.75152 15.2971 6.04297 15.3951 5.24609C15.5917 3.65234 16.1552 2.43512 17.087 1.59375C17.7736 1.01801 18.6818 0.597656 19.8095 0.332031C20.5948 0.110898 21.4522 0 22.3847 0L23.4882 0.0664062L23.5618 1.0625C23.5618 1.90387 23.4388 2.67816 23.1943 3.38672C22.9004 4.40473 22.4348 5.22418 21.7962 5.84375Z" fill="#302B2B"/>
</g>
<defs>
<clipPath id="clip0_38_135">
<rect width="33" height="34" fill="white"/>
</clipPath>
</defs>
</svg>
