<svg width="10" height="10" viewBox="0 0 10 10" fill="none" xmlns="http://www.w3.org/2000/svg">
<g clip-path="url(#clip0_38_44)">
<path d="M4.99934 10C5.78774 10 6.42725 9.44043 6.42725 8.75H3.57144C3.57144 9.44043 4.21095 10 4.99934 10ZM9.80716 7.07598C9.37591 6.67051 8.56899 6.06055 8.56899 4.0625C8.56899 2.54492 7.35292 1.33008 5.71318 1.03203V0.625C5.71318 0.279883 5.39354 0 4.99934 0C4.60515 0 4.28551 0.279883 4.28551 0.625V1.03203C2.64577 1.33008 1.4297 2.54492 1.4297 4.0625C1.4297 6.06055 0.622782 6.67051 0.191532 7.07598C0.057603 7.20195 -0.00177203 7.35254 -0.000655954 7.5C0.0017994 7.82031 0.289076 8.125 0.715862 8.125H9.28283C9.70961 8.125 9.99711 7.82031 9.99935 7.5C10.0005 7.35254 9.94109 7.20176 9.80716 7.07598Z" fill="#302B2B"/>
</g>
<defs>
<clipPath id="clip0_38_44">
<rect width="10" height="10" fill="white"/>
</clipPath>
</defs>
</svg>
