<svg width="39" height="32" viewBox="0 0 39 32" fill="none" xmlns="http://www.w3.org/2000/svg">
<path d="M19.5 0.5C9.06445 0.5 0.609375 7.4375 0.609375 16C0.609375 24.5625 9.06445 31.5 19.5 31.5C29.9355 31.5 38.3906 24.5625 38.3906 16C38.3906 7.4375 29.9355 0.5 19.5 0.5ZM19.5 28.5C11.083 28.5 4.26562 22.9062 4.26562 16C4.26562 9.09375 11.083 3.5 19.5 3.5C27.917 3.5 34.7344 9.09375 34.7344 16C34.7344 22.9062 27.917 28.5 19.5 28.5ZM24.2074 21.975L17.7404 18.1187C17.5043 17.975 17.3672 17.75 17.3672 17.5125V7.25C17.3672 6.8375 17.7785 6.5 18.2812 6.5H20.7188C21.2215 6.5 21.6328 6.8375 21.6328 7.25V16.1063L26.7211 19.1437C27.1324 19.3875 27.2162 19.8563 26.9191 20.1938L25.4871 21.8125C25.19 22.1437 24.6187 22.2188 24.2074 21.975Z" fill="#302B2B"/>
</svg>
