<svg width="18" height="13" viewBox="0 0 18 13" fill="none" xmlns="http://www.w3.org/2000/svg">
<g clip-path="url(#clip0_36_11)">
<path d="M17.55 11.376H15.3V2.88152C15.3 2.18937 14.6945 1.62595 13.95 1.62595H10.8V3.25095H13.5V13.001H17.55C17.7986 13.001 18 12.8192 18 12.5947V11.7822C18 11.5577 17.7986 11.376 17.55 11.376ZM8.78175 0.0265964L3.38175 1.28953C2.98097 1.38322 2.7 1.7199 2.7 2.10634V11.376H0.45C0.201375 11.376 0 11.5577 0 11.7822V12.5947C0 12.8192 0.201375 13.001 0.45 13.001H9.9V0.843413C9.9 0.295483 9.34987 -0.106451 8.78175 0.0265964ZM7.425 7.31345C7.05234 7.31345 6.75 6.9496 6.75 6.50095C6.75 6.0523 7.05234 5.68845 7.425 5.68845C7.79766 5.68845 8.1 6.0523 8.1 6.50095C8.1 6.9496 7.79766 7.31345 7.425 7.31345Z" fill="#302B2B"/>
</g>
<defs>
<clipPath id="clip0_36_11">
<rect width="18" height="13" fill="white"/>
</clipPath>
</defs>
</svg>
