<svg width="41" height="33" viewBox="0 0 41 33" fill="none" xmlns="http://www.w3.org/2000/svg">
<path d="M6.6625 6.1875H3.5875C2.73547 6.1875 2.05 6.87715 2.05 7.73438V14.4375H0.5125C0.230625 14.4375 0 14.6695 0 14.9531V18.0469C0 18.3305 0.230625 18.5625 0.5125 18.5625H2.05V25.2656C2.05 26.1229 2.73547 26.8125 3.5875 26.8125H6.6625C7.51453 26.8125 8.2 26.1229 8.2 25.2656V7.73438C8.2 6.87715 7.51453 6.1875 6.6625 6.1875ZM40.4875 14.4375H38.95V7.73438C38.95 6.87715 38.2645 6.1875 37.4125 6.1875H34.3375C33.4855 6.1875 32.8 6.87715 32.8 7.73438V25.2656C32.8 26.1229 33.4855 26.8125 34.3375 26.8125H37.4125C38.2645 26.8125 38.95 26.1229 38.95 25.2656V18.5625H40.4875C40.7694 18.5625 41 18.3305 41 18.0469V14.9531C41 14.6695 40.7694 14.4375 40.4875 14.4375ZM29.2125 2.0625H26.1375C25.2855 2.0625 24.6 2.75215 24.6 3.60938V14.4375H16.4V3.60938C16.4 2.75215 15.7145 2.0625 14.8625 2.0625H11.7875C10.9355 2.0625 10.25 2.75215 10.25 3.60938V29.3906C10.25 30.2479 10.9355 30.9375 11.7875 30.9375H14.8625C15.7145 30.9375 16.4 30.2479 16.4 29.3906V18.5625H24.6V29.3906C24.6 30.2479 25.2855 30.9375 26.1375 30.9375H29.2125C30.0645 30.9375 30.75 30.2479 30.75 29.3906V3.60938C30.75 2.75215 30.0645 2.0625 29.2125 2.0625Z" fill="#302B2B"/>
</svg>
