<svg width="12" height="11" viewBox="0 0 12 11" fill="none" xmlns="http://www.w3.org/2000/svg">
<path d="M6 0.171875C2.68548 0.171875 0 2.55664 0 5.5C0 8.44336 2.68548 10.8281 6 10.8281C9.31452 10.8281 12 8.44336 12 5.5C12 2.55664 9.31452 0.171875 6 0.171875ZM6 2.23438C7.17581 2.23438 8.12903 3.08086 8.12903 4.125C8.12903 5.16914 7.17581 6.01562 6 6.01562C4.82419 6.01562 3.87097 5.16914 3.87097 4.125C3.87097 3.08086 4.82419 2.23438 6 2.23438ZM6 9.625C4.57984 9.625 3.30726 9.05352 2.45565 8.15977C2.91048 7.39922 3.80081 6.875 4.83871 6.875C4.89677 6.875 4.95484 6.88359 5.01048 6.89863C5.325 6.98887 5.65403 7.04688 6 7.04688C6.34597 7.04688 6.67742 6.98887 6.98952 6.89863C7.04516 6.88359 7.10323 6.875 7.16129 6.875C8.19919 6.875 9.08952 7.39922 9.54435 8.15977C8.69274 9.05352 7.42016 9.625 6 9.625Z" fill="#302B2B"/>
</svg>
