<svg width="13" height="12" viewBox="0 0 13 12" fill="none" xmlns="http://www.w3.org/2000/svg">
<path d="M0 3.9375V3.5625C0 3.25183 0.272822 3 0.609375 3H9.75V1.875C9.75 1.37421 10.4076 1.12401 10.7903 1.47724L12.8215 3.35224C13.0595 3.57192 13.0595 3.92807 12.8215 4.14773L10.7903 6.02273C10.409 6.37457 9.75 6.12787 9.75 5.625V4.5H0.609375C0.272822 4.5 0 4.24816 0 3.9375ZM12.3906 7.5H3.25V6.375C3.25 5.87545 2.59335 5.62312 2.20972 5.97724L0.178471 7.85224C-0.0594902 8.07192 -0.0594902 8.42807 0.178471 8.64773L2.20972 10.5227C2.59129 10.8749 3.25 10.6274 3.25 10.125V9H12.3906C12.7272 9 13 8.74816 13 8.4375V8.0625C13 7.75183 12.7272 7.5 12.3906 7.5Z" fill="#302B2B"/>
</svg>
