<svg width="43" height="35" viewBox="0 0 43 35" fill="none" xmlns="http://www.w3.org/2000/svg">
<g clip-path="url(#clip0_38_141)">
<path d="M20.9304 10.135L7.16667 20.5153V31.7187C7.16667 32.0088 7.29251 32.287 7.51651 32.4921C7.74052 32.6973 8.04433 32.8125 8.36111 32.8125L16.7267 32.7927C17.0425 32.7912 17.3447 32.6754 17.5674 32.4704C17.7902 32.2654 17.9152 31.9881 17.9152 31.6989V25.1562C17.9152 24.8662 18.041 24.588 18.265 24.3828C18.489 24.1777 18.7928 24.0625 19.1096 24.0625H23.8874C24.2042 24.0625 24.508 24.1777 24.732 24.3828C24.956 24.588 25.0818 24.8662 25.0818 25.1562V31.6941C25.0814 31.8381 25.1119 31.9807 25.1717 32.1137C25.2315 32.2468 25.3194 32.3678 25.4304 32.4697C25.5413 32.5717 25.6732 32.6525 25.8183 32.7077C25.9635 32.7629 26.1191 32.7913 26.2763 32.7913L34.6389 32.8125C34.9557 32.8125 35.2595 32.6973 35.4835 32.4921C35.7075 32.287 35.8333 32.0088 35.8333 31.7187V20.5078L22.0726 10.135C21.9108 10.0156 21.7093 9.95044 21.5015 9.95044C21.2937 9.95044 21.0922 10.0156 20.9304 10.135ZM42.6715 17.1903L36.4306 12.4797V3.01123C36.4306 2.79367 36.3362 2.58502 36.1682 2.43118C36.0002 2.27734 35.7723 2.19092 35.5347 2.19092H31.3542C31.1166 2.19092 30.8887 2.27734 30.7207 2.43118C30.5527 2.58502 30.4583 2.79367 30.4583 3.01123V7.9748L23.7747 2.93945C23.1333 2.45614 22.3284 2.19188 21.4978 2.19188C20.6671 2.19188 19.8623 2.45614 19.2209 2.93945L0.323996 17.1903C0.233284 17.259 0.158233 17.3433 0.103134 17.4386C0.048034 17.5338 0.0139646 17.638 0.00287227 17.7453C-0.0082201 17.8526 0.00388195 17.9608 0.0384869 18.0638C0.0730919 18.1668 0.129522 18.2626 0.204552 18.3456L2.1082 20.4647C2.18302 20.5481 2.27506 20.617 2.37904 20.6677C2.48301 20.7184 2.59689 20.7499 2.71415 20.7602C2.83141 20.7706 2.94974 20.7596 3.06238 20.7281C3.17502 20.6965 3.27975 20.6449 3.37058 20.5762L20.9304 7.33223C21.0922 7.21282 21.2937 7.1477 21.5015 7.1477C21.7093 7.1477 21.9108 7.21282 22.0726 7.33223L39.6332 20.5762C39.7238 20.6449 39.8284 20.6965 39.9409 20.7282C40.0534 20.7599 40.1716 20.771 40.2887 20.7608C40.4059 20.7507 40.5197 20.7195 40.6237 20.669C40.7277 20.6186 40.8198 20.5499 40.8948 20.4668L42.7984 18.3477C42.8734 18.2642 42.9296 18.1679 42.9638 18.0645C42.998 17.961 43.0095 17.8524 42.9977 17.7448C42.9859 17.6373 42.951 17.5329 42.8951 17.4378C42.8391 17.3426 42.7631 17.2585 42.6715 17.1903Z" fill="#302B2B"/>
</g>
<defs>
<clipPath id="clip0_38_141">
<rect width="43" height="35" fill="white"/>
</clipPath>
</defs>
</svg>
