<svg width="31" height="29" viewBox="0 0 31 29" fill="none" xmlns="http://www.w3.org/2000/svg">
<path d="M15.5 14.5C20.3922 14.5 24.3571 11.2545 24.3571 7.25C24.3571 3.24551 20.3922 0 15.5 0C10.6078 0 6.64286 3.24551 6.64286 7.25C6.64286 11.2545 10.6078 14.5 15.5 14.5ZM21.7 16.3125H20.5444C19.0083 16.8902 17.2991 17.2188 15.5 17.2188C13.7009 17.2188 11.9987 16.8902 10.4556 16.3125H9.3C4.16562 16.3125 0 19.7223 0 23.925V26.2812C0 27.7822 1.48772 29 3.32143 29H27.6786C29.5123 29 31 27.7822 31 26.2812V23.925C31 19.7223 26.8344 16.3125 21.7 16.3125Z" fill="#302B2B"/>
</svg>
