<svg width="12" height="10" viewBox="0 0 12 10" fill="none" xmlns="http://www.w3.org/2000/svg">
<g clip-path="url(#clip0_38_24)">
<path d="M4.2 5C5.52563 5 6.6 3.88086 6.6 2.5C6.6 1.11914 5.52563 0 4.2 0C2.87438 0 1.8 1.11914 1.8 2.5C1.8 3.88086 2.87438 5 4.2 5ZM5.88 5.625H5.56687C5.15063 5.82422 4.6875 5.9375 4.2 5.9375C3.7125 5.9375 3.25125 5.82422 2.83313 5.625H2.52C1.12875 5.625 0 6.80078 0 8.25V9.0625C0 9.58008 0.403125 10 0.9 10H6.05438C6.00938 9.86719 5.99062 9.72656 6.00563 9.58398L6.13313 8.39453L6.15562 8.17773L6.30375 8.02344L7.75313 6.51367C7.29375 5.97266 6.62813 5.625 5.88 5.625ZM6.72938 8.46289L6.60188 9.6543C6.58125 9.85352 6.7425 10.0215 6.93188 9.99805L8.07375 9.86523L10.6594 7.17188L9.315 5.77148L6.72938 8.46289ZM11.8688 5.25195L11.1581 4.51172C10.9838 4.33008 10.6988 4.33008 10.5244 4.51172L9.81563 5.25L9.73875 5.33008L11.085 6.73047L11.8688 5.91406C12.0431 5.73047 12.0431 5.43555 11.8688 5.25195Z" fill="#302B2B"/>
</g>
<defs>
<clipPath id="clip0_38_24">
<rect width="12" height="10" fill="white"/>
</clipPath>
</defs>
</svg>
