<svg width="12" height="10" viewBox="0 0 12 10" fill="none" xmlns="http://www.w3.org/2000/svg">
<path d="M11.6681 5.29492L9.50813 4.41602C9.43125 4.38477 9.27188 4.34375 9.09188 4.41602L6.93188 5.29492C6.73125 5.37695 6.6 5.56836 6.6 5.78125C6.6 7.96094 7.88813 9.46875 9.09188 9.95898C9.27188 10.0312 9.42938 9.99023 9.50813 9.95898C10.47 9.56836 12 8.21289 12 5.78125C12 5.56836 11.8688 5.37695 11.6681 5.29492ZM9.3 9.03125V5.33789L11.0906 6.06641C10.9856 7.76758 9.94875 8.71094 9.3 9.03125ZM4.2 5C5.52563 5 6.6 3.88086 6.6 2.5C6.6 1.11914 5.52563 0 4.2 0C2.87438 0 1.8 1.11914 1.8 2.5C1.8 3.88086 2.87438 5 4.2 5ZM6 5.78125C6 5.73242 6.015 5.6875 6.02063 5.64062C5.97375 5.63867 5.92875 5.625 5.88 5.625H5.56687C5.15063 5.82422 4.6875 5.9375 4.2 5.9375C3.7125 5.9375 3.25125 5.82422 2.83313 5.625H2.52C1.12875 5.625 0 6.80078 0 8.25V9.0625C0 9.58008 0.403125 10 0.9 10H7.5C7.6275 10 7.74938 9.9707 7.86 9.92188C6.8475 9.08398 6 7.64258 6 5.78125Z" fill="#302B2B"/>
</svg>
