<svg width="14" height="11" viewBox="0 0 14 11" fill="none" xmlns="http://www.w3.org/2000/svg">
<path d="M2.1 4.8125C2.87219 4.8125 3.5 4.1959 3.5 3.4375C3.5 2.6791 2.87219 2.0625 2.1 2.0625C1.32781 2.0625 0.7 2.6791 0.7 3.4375C0.7 4.1959 1.32781 4.8125 2.1 4.8125ZM11.9 4.8125C12.6722 4.8125 13.3 4.1959 13.3 3.4375C13.3 2.6791 12.6722 2.0625 11.9 2.0625C11.1278 2.0625 10.5 2.6791 10.5 3.4375C10.5 4.1959 11.1278 4.8125 11.9 4.8125ZM12.6 5.5H11.2C10.815 5.5 10.4672 5.65254 10.2134 5.89961C11.095 6.37441 11.7206 7.23164 11.8562 8.25H13.3C13.6872 8.25 14 7.94277 14 7.5625V6.875C14 6.1166 13.3722 5.5 12.6 5.5ZM7 5.5C8.35406 5.5 9.45 4.42363 9.45 3.09375C9.45 1.76387 8.35406 0.6875 7 0.6875C5.64594 0.6875 4.55 1.76387 4.55 3.09375C4.55 4.42363 5.64594 5.5 7 5.5ZM8.68 6.1875H8.49844C8.04344 6.40234 7.53813 6.53125 7 6.53125C6.46187 6.53125 5.95875 6.40234 5.50156 6.1875H5.32C3.92875 6.1875 2.8 7.29609 2.8 8.6625V9.28125C2.8 9.85059 3.27031 10.3125 3.85 10.3125H10.15C10.7297 10.3125 11.2 9.85059 11.2 9.28125V8.6625C11.2 7.29609 10.0712 6.1875 8.68 6.1875ZM3.78656 5.89961C3.53281 5.65254 3.185 5.5 2.8 5.5H1.4C0.627813 5.5 0 6.1166 0 6.875V7.5625C0 7.94277 0.312812 8.25 0.7 8.25H2.14156C2.27938 7.23164 2.905 6.37441 3.78656 5.89961Z" fill="#302B2B"/>
</svg>
